Patient4_TMGait_0pt4_01_left_45_GRF.mot
version=1
nRows=65
nColumns=19
inDegrees=no
endheader
time	F1x	F1y	F1z	M1x	M1y	M1z	F2x	F2y	F2z	M2x	M2y	M2z	EC1x	EC1y	EC1z	EC2x	EC2y	EC2z
56.88	5.7759	-10.9607	3.658	2.7165	-4.0983	-9.1196	-30.3677	711.6898	-63.9297	268.7348	84.6654	836.496	-0.0592	0.0182	-0.0073	-0.0462	0.0165	0.9585
56.8926	3.6918	-6.6802	2.5258	1.5653	-2.91	-5.3424	-27.7091	700.729	-65.0439	264.3333	84.6998	822.6975	-0.0592	0.0182	-0.0073	-0.0462	0.0165	0.9585
56.9051	1.9969	-3.0723	1.5909	0.59245	-1.9079	-2.1416	-25.0519	691.0058	-65.6163	260.3733	84.0491	809.6905	-0.0592	0.0182	-0.0073	-0.0462	0.0165	0.9585
56.9177	0.76434	-0.32231	0.88083	-0.15171	-1.1368	0.31345	-22.546	684.242	-65.5492	257.5602	82.6937	799.4899	-0.0592	0.0182	-0.0073	-0.0462	0.0165	0.9585
56.9303	-0.059837	1.5973	0.40148	-0.67295	-0.61322	2.0537	-20.2515	681.7758	-64.8367	256.456	80.6955	793.7035	-0.0592	0.0182	-0.0073	-0.0462	0.0165	0.9585
56.9429	-0.55322	2.7941	0.10358	-0.99863	-0.28999	3.1539	-18.1505	684.3822	-63.5613	257.3932	78.1795	793.2909	-0.0592	0.0182	-0.0073	-0.0462	0.0165	0.9585
56.9554	-0.82065	3.4173	-0.046112	-1.1645	-0.13493	3.7404	-16.1563	692.2188	-61.8278	260.4494	75.2644	798.4772	-0.0592	0.0182	-0.0073	-0.0462	0.0165	0.9585
56.968	-0.93488	3.5938	-0.1014	-1.2026	-0.091975	3.9	-14.1803	704.8396	-59.7713	265.4531	72.0842	808.7813	-0.0592	0.0182	-0.0073	-0.0462	0.0165	0.9585
56.9806	-0.99267	3.4113	-0.085958	-1.1303	-0.14034	3.6974	-12.147	721.2884	-57.5079	272.0191	68.7412	823.139	-0.0592	0.0182	-0.0073	-0.0462	0.0165	0.9585
56.9931	-1.028	2.9093	-0.039062	-0.95152	-0.23669	3.1271	-9.9876	740.1976	-55.156	279.5888	65.3241	840.0343	-0.0592	0.0182	-0.0073	-0.0462	0.0165	0.9585
57.0057	-1.082	2.0881	0.031664	-0.65689	-0.37354	2.1703	-7.667	759.8835	-52.8298	287.4732	61.9131	857.619	-0.0592	0.0182	-0.0073	-0.0462	0.0165	0.9585
57.0183	-1.1506	0.90859	0.098435	-0.22986	-0.51535	0.75418	-5.135	778.4649	-50.6726	294.903	58.6057	873.8299	-0.0592	0.0182	-0.0073	-0.0462	0.0165	0.9585
57.0309	-1.2247	-0.66703	0.16079	0.34246	-0.64786	-1.1603	-2.3472	794.0334	-48.8162	301.1009	55.4935	886.584	-0.0592	0.0182	-0.0073	-0.0462	0.0165	0.9585
57.0434	-1.2539	-2.617	0.19382	1.0499	-0.72342	-3.5413	0.70392	804.8457	-47.3575	305.3681	52.651	893.9913	-0.0592	0.0182	-0.0073	-0.0462	0.0165	0.9585
57.056	-1.1749	-4.8132	0.18705	1.8437	-0.69814	-6.2227	3.9659	809.586	-46.3606	307.1861	50.1513	894.6617	-0.0592	0.0182	-0.0073	-0.0462	0.0165	0.9585
57.0686	-0.8966	-6.9257	0.10616	2.6031	-0.49333	-8.8019	7.3501	807.5272	-45.8538	306.2857	48.0628	887.8771	-0.0592	0.0182	-0.0073	-0.0462	0.0165	0.9585
57.0811	-0.28738	-8.3626	-0.070713	3.113	-0.027679	-10.5558	10.7011	798.5983	-45.8325	302.6735	46.4512	873.659	-0.0592	0.0182	-0.0073	-0.0462	0.0165	0.9585
57.0937	0.79277	-8.1892	-0.38543	3.0338	0.79353	-10.3267	13.8859	783.4476	-46.2499	296.6509	45.3429	852.7956	-0.0592	0.0182	-0.0073	-0.0462	0.0165	0.9585
57.1063	2.4821	-5.094	-0.85767	1.8864	2.0377	-6.5003	16.8056	763.424	-46.9849	288.7996	44.6778	826.8227	-0.0592	0.0182	-0.0073	-0.0462	0.0165	0.9585
57.1189	4.8637	2.6101	-1.4964	-0.94707	3.7356	3.0106	19.4097	740.4553	-47.8352	279.9238	44.2927	797.8726	-0.0592	0.0182	-0.0073	-0.0462	0.0165	0.9585
57.1314	7.9269	16.8442	-2.2676	-6.1707	5.8309	20.5722	21.7335	716.8162	-48.5625	270.9448	43.9549	768.4196	-0.0592	0.0182	-0.0073	-0.0462	0.0165	0.9585
57.144	11.4459	39.4782	-3.0811	-14.4687	8.1275	48.4919	23.8416	694.7332	-48.9289	262.7438	43.4062	740.8846	-0.0592	0.0182	-0.0073	-0.0462	0.0165	0.9585
57.1566	14.8974	71.7853	-3.7537	-26.3075	10.2119	88.3332	25.8476	675.9428	-48.7402	255.9901	42.4023	717.149	-0.0592	0.0182	-0.0073	-0.0462	0.0165	0.9585
57.1691	17.3171	113.5959	-3.9878	-41.6215	11.3612	139.8971	27.8554	661.3808	-47.8673	251.0182	40.7562	698.2471	-0.0592	0.0182	-0.0073	-0.0462	0.0165	0.9585
57.1817	17.2483	162.1952	-3.3514	-59.4108	10.511	199.85	29.9034	650.8959	-46.2687	247.7322	38.3852	684.054	-0.0592	0.0182	-0.0073	-0.0462	0.0165	0.9585
57.1943	13.6717	211.854	-1.2614	-77.5532	6.5934	261.1585	31.9016	643.3163	-43.9742	245.6322	35.3227	673.384	-0.0592	0.0182	-0.0073	-0.0462	0.0165	0.9585
57.2069	7.684	255.676	2.8114	-93.4885	-0.57436	315.3087	33.7426	636.7734	-41.1178	243.945	31.7331	664.2946	-0.0592	0.0182	-0.0073	-0.0462	0.0165	0.9585
57.2194	0.94147	289.0507	8.3063	-105.5499	-9.6689	356.4658	35.3058	629.2879	-37.9339	241.8473	27.8929	654.7015	-0.0592	0.0182	-0.0073	-0.0462	0.0165	0.9585
57.232	-5.3964	311.6837	14.2527	-113.6564	-19.1011	384.1426	36.5759	619.1467	-34.7771	238.6149	24.1597	642.7528	-0.0592	0.0182	-0.0073	-0.0462	0.0165	0.9585
57.2446	-10.7995	326.1655	19.6628	-118.8027	-27.4867	401.6172	37.6299	605.0582	-31.9422	233.6984	20.7951	627.0127	-0.0592	0.0182	-0.0073	-0.0462	0.0165	0.9585
57.2571	-15.0483	336.0083	23.7077	-122.3181	-33.7729	413.2942	38.5399	586.1399	-29.5263	226.7351	17.868	606.4757	-0.0592	0.0182	-0.0073	-0.0462	0.0165	0.9585
57.2697	-18.2024	344.1901	26.0242	-125.3088	-37.5433	422.9195	39.3199	561.8963	-27.3951	217.5399	15.2459	580.5687	-0.0592	0.0182	-0.0073	-0.0462	0.0165	0.9585
57.2823	-20.3815	352.5851	26.5396	-128.46	-38.798	432.803	39.91	532.1789	-25.2934	206.081	12.7108	549.1223	-0.0592	0.0182	-0.0073	-0.0462	0.0165	0.9585
57.2949	-21.8162	362.4037	25.7938	-132.1685	-38.2594	444.418	40.1611	497.0907	-22.9977	192.4351	10.1062	512.2622	-0.0592	0.0182	-0.0073	-0.0462	0.0165	0.9585
57.3074	-22.6916	374.6423	24.4428	-136.7384	-36.8126	458.9501	39.8538	457.0227	-20.4403	176.7903	7.449	470.4253	-0.0592	0.0182	-0.0073	-0.0462	0.0165	0.9585
57.32	-23.116	390.1752	23.3743	-142.4297	-35.5441	477.4401	38.757	412.7726	-17.7126	159.4883	4.915	424.4618	-0.0592	0.0182	-0.0073	-0.0462	0.0165	0.9585
57.3326	-23.2319	409.7402	23.1946	-149.4704	-35.2429	500.685	36.6859	365.6097	-14.9947	141.05	2.7495	375.682	-0.0592	0.0182	-0.0073	-0.0462	0.0165	0.9585
57.3451	-23.224	433.7855	24.472	-158.0064	-36.6174	529.136	33.5807	317.2266	-12.5034	122.1547	1.1887	325.8192	-0.0592	0.0182	-0.0073	-0.0462	0.0165	0.9585
57.3577	-23.2945	462.6259	27.2782	-168.1608	-39.8329	563.092	29.5625	269.5405	-10.4071	103.5595	0.36297	276.8224	-0.0592	0.0182	-0.0073	-0.0462	0.0165	0.9585
57.3703	-23.5484	496.3591	31.5067	-179.9955	-44.7706	602.5849	24.875	224.349	-8.7829	85.9704	0.26918	230.4964	-0.0592	0.0182	-0.0073	-0.0462	0.0165	0.9585
57.3829	-24.035	534.6241	36.6573	-193.4289	-50.8596	647.0984	19.8342	183.1161	-7.5958	69.9559	0.77126	188.2971	-0.0592	0.0182	-0.0073	-0.0462	0.0165	0.9585
57.3954	-24.6842	576.3757	42.3412	-208.1245	-57.584	695.3169	14.7687	146.8026	-6.7559	55.8853	1.6676	151.1588	-0.0592	0.0182	-0.0073	-0.0462	0.0165	0.9585
57.408	-25.3854	619.9425	48.105	-223.5093	-64.3724	745.2043	9.9568	115.7783	-6.145	43.8997	2.7375	119.4249	-0.0592	0.0182	-0.0073	-0.0462	0.0165	0.9585
57.4206	-26.0369	663.1754	53.7042	-238.8282	-70.882	794.2143	5.6589	89.8808	-5.6688	33.9323	3.7863	92.9096	-0.0592	0.0182	-0.0073	-0.0462	0.0165	0.9585
57.4331	-26.5351	703.8986	58.8378	-253.3034	-76.7418	839.7932	2.0266	68.6034	-5.2402	25.7776	4.6627	71.0958	-0.0592	0.0182	-0.0073	-0.0462	0.0165	0.9585
57.4457	-26.7804	740.1762	63.3656	-266.2304	-81.7563	879.7264	-0.87621	51.2589	-4.7917	19.1629	5.2656	53.2917	-0.0592	0.0182	-0.0073	-0.0462	0.0165	0.9585
57.4583	-26.6791	770.4853	67.1276	-277.0555	-85.7297	912.2916	-3.0131	37.2084	-4.2713	13.8295	5.5194	38.8622	-0.0592	0.0182	-0.0073	-0.0462	0.0165	0.9585
57.4709	-26.137	793.8868	70.1372	-285.4232	-88.6486	936.4761	-4.3259	25.9029	-3.653	9.557	5.3706	27.2448	-0.0592	0.0182	-0.0073	-0.0462	0.0165	0.9585
57.4834	-25.0535	809.9969	72.3909	-291.1813	-90.5005	951.9242	-4.7667	16.9389	-2.9376	6.1835	4.8	18.0281	-0.0592	0.0182	-0.0073	-0.0462	0.0165	0.9585
57.496	-23.412	818.8729	73.9922	-294.3316	-91.4063	958.8056	-4.379	10.0986	-2.1884	3.6196	3.8937	10.9787	-0.0592	0.0182	-0.0073	-0.0462	0.0165	0.9585
57.5086	-21.2334	820.8756	75.0074	-294.9913	-91.4661	957.6163	-3.5359	5.2961	-1.4961	1.8255	2.8829	6.0092	-0.0592	0.0182	-0.0073	-0.0462	0.0165	0.9585
57.5211	-18.5772	816.6234	75.5542	-293.3735	-90.8404	949.1734	-2.567	2.2514	-0.94513	0.69427	1.9728	2.8451	-0.0592	0.0182	-0.0073	-0.0462	0.0165	0.9585
57.5337	-15.5377	807.0292	75.7099	-289.8022	-89.6607	934.6087	-1.6616	0.59201	-0.53989	0.083643	1.2393	1.1185	-0.0592	0.0182	-0.0073	-0.0462	0.0165	0.9585
57.5463	-12.268	793.3174	75.5819	-284.7109	-88.1018	915.4119	-0.91183	-0.087272	-0.2773	-0.15926	0.71314	0.40942	-0.0592	0.0182	-0.0073	-0.0462	0.0165	0.9585
57.5589	-8.9188	776.9172	75.2446	-278.6141	-86.3016	893.2986	-0.36089	-0.13085	-0.12418	-0.16378	0.3732	0.36633	-0.0592	0.0182	-0.0073	-0.0462	0.0165	0.9585
57.5714	-5.6491	759.4013	74.7654	-272.0792	-84.3851	870.1212	0.01332	0.19645	-0.058872	-0.031949	0.18787	0.71834	-0.0592	0.0182	-0.0073	-0.0462	0.0165	0.9585
57.584	-2.6087	742.314	74.1718	-265.6706	-82.4267	847.6553	0.21632	0.7008	-0.04505	0.16269	0.11356	1.2742	-0.0592	0.0182	-0.0073	-0.0462	0.0165	0.9585
57.5966	0.099818	727.0419	73.4667	-259.901	-80.4562	827.4635	0.29268	1.2383	-0.06691	0.36559	0.11669	1.8659	-0.0592	0.0182	-0.0073	-0.0462	0.0165	0.9585
57.6091	2.4149	714.752	72.6344	-255.205	-78.4687	810.8181	0.28067	1.7143	-0.10988	0.54146	0.1695	2.3881	-0.0592	0.0182	-0.0073	-0.0462	0.0165	0.9585
57.6217	4.3316	706.2892	71.6712	-251.9049	-76.4546	798.5904	0.2059	2.0232	-0.17363	0.65546	0.26483	2.7158	-0.0592	0.0182	-0.0073	-0.0462	0.0165	0.9585
57.6343	5.8983	702.1539	70.5981	-250.1963	-74.4145	791.2564	0.09498	2.0944	-0.25417	0.68281	0.39402	2.7605	-0.0592	0.0182	-0.0073	-0.0462	0.0165	0.9585
57.6469	7.2525	702.4747	69.4614	-250.1311	-72.3516	788.8427	-0.020548	1.8472	-0.35429	0.59613	0.5524	2.4197	-0.0592	0.0182	-0.0073	-0.0462	0.0165	0.9585
57.6594	8.5434	706.9917	68.3365	-251.6129	-70.2952	790.9678	-0.12859	1.1694	-0.46476	0.35936	0.72226	1.5563	-0.0592	0.0182	-0.0073	-0.0462	0.0165	0.9585
57.672	9.9501	715.056	67.3051	-254.4027	-68.2734	796.8375	-0.20479	-0.027718	-0.58082	-0.058505	0.88463	0.057205	-0.0592	0.0182	-0.0073	-0.0462	0.0165	0.9585
57.6846	11.6239	725.7158	66.4508	-258.1436	-66.3219	805.3589	-0.21448	-1.8184	-0.67788	-0.68125	0.99625	-2.1769	-0.0592	0.0182	-0.0073	-0.0462	0.0165	0.9585
